<?xml version="1.0" standalone="no"?>
<!DOCTYPE svg PUBLIC "-//W3C//DTD SVG 20010904//EN"
 "http://www.w3.org/TR/2001/REC-SVG-20010904/DTD/svg10.dtd">
<svg version="1.0" xmlns="http://www.w3.org/2000/svg"
 width="500.000000pt" height="500.000000pt" viewBox="0 0 500.000000 500.000000"
 preserveAspectRatio="xMidYMid meet">

<g transform="translate(0.000000,500.000000) scale(0.100000,-0.100000)"
fill="#000000" stroke="none">
<path d="M0 2500 l0 -2500 2500 0 2500 0 0 2500 0 2500 -2500 0 -2500 0 0
-2500z m238 2208 c10 -10 177 -14 740 -18 l727 -5 3 -22 c2 -13 2 -24 0 -25
-2 -2 -331 -5 -733 -8 l-730 -5 -3 -721 c-2 -662 -4 -722 -19 -728 -9 -4 -21
-2 -27 4 -8 8 -13 242 -16 758 -4 632 -3 750 9 765 17 20 32 22 49 5z m749
-246 c6 -4 13 -32 15 -62 l3 -55 55 -8 c30 -4 57 -11 61 -15 4 -4 4 -33 2 -64
l-5 -58 -58 0 -58 0 -7 -65 -7 -66 -61 3 -62 3 -5 60 c-5 58 -6 60 -35 63 -16
1 -45 5 -62 8 l-33 5 0 64 0 64 63 3 62 3 3 50 c1 28 5 56 7 63 5 13 102 17
122 4z m3357 -168 c44 -6 46 -8 46 -40 0 -18 -4 -35 -9 -39 -5 -3 -111 -2
-235 1 -241 8 -243 8 -230 60 l6 24 188 0 c103 0 208 -3 234 -6z m-2850 -600
c13 -5 16 -23 16 -94 0 -49 -3 -95 -6 -104 -5 -13 -22 -16 -79 -16 -65 0 -73
2 -82 23 l-11 22 -7 -27 c-9 -36 -2 -45 46 -53 l40 -7 -3 -46 c-3 -47 -3 -47
-43 -50 -53 -5 -65 -17 -65 -67 0 -46 9 -55 61 -55 l29 0 0 -64 c0 -36 -3 -67
-8 -70 -4 -2 -86 -1 -182 2 l-175 7 -3 63 c-3 57 -1 64 18 69 19 5 20 12 20
168 0 136 -3 164 -15 169 -11 4 -15 20 -15 55 0 86 -15 81 230 81 120 0 225
-3 234 -6z m607 -25 c62 -27 115 -87 134 -153 20 -67 19 -212 -1 -272 -24 -71
-62 -122 -113 -152 -42 -25 -55 -27 -151 -27 -97 0 -109 2 -153 28 -26 15 -58
45 -72 65 -64 97 -73 293 -19 400 65 126 227 174 375 111z m833 -29 c68 -35
88 -75 84 -165 -2 -54 -9 -78 -26 -103 l-23 -32 20 -26 c11 -14 24 -48 27 -75
4 -27 13 -54 20 -60 14 -12 18 -67 8 -107 -6 -22 -9 -23 -133 -20 l-126 3 -5
30 -6 30 -12 -34 -12 -34 -107 6 c-58 4 -128 7 -155 7 l-48 0 0 65 c0 54 3 66
20 75 19 10 20 21 20 169 0 132 -3 160 -15 165 -11 4 -15 21 -15 64 0 32 3 62
7 66 5 4 103 6 218 4 202 -3 213 -4 259 -28z m764 -2 c8 -12 100 -352 117
-435 4 -19 13 -33 21 -33 11 0 14 -16 14 -70 l0 -70 -137 0 c-167 0 -183 4
-184 39 l-1 26 -11 -27 -11 -28 -132 0 c-97 0 -133 3 -136 13 -2 6 -2 38 0 70
3 40 8 57 18 57 8 0 14 2 14 3 0 9 84 292 111 375 l31 92 138 0 c98 0 140 -4
148 -12z m-1475 -901 c108 -49 157 -139 157 -287 0 -115 -24 -182 -84 -238
-72 -67 -119 -76 -339 -67 l-187 7 0 69 c0 52 3 69 14 69 23 0 26 24 26 181 0
126 -2 149 -15 149 -12 0 -15 15 -15 71 l0 71 203 -4 c163 -3 209 -8 240 -21z
m865 -3 c21 -4 22 -8 22 -124 l0 -120 -90 0 c-78 0 -91 3 -96 18 -15 48 -24
61 -38 56 -8 -3 -16 -17 -19 -30 -3 -20 1 -28 19 -36 21 -10 24 -18 24 -60 0
-43 -3 -50 -25 -58 -19 -7 -25 -17 -25 -38 0 -27 15 -52 32 -52 4 0 13 20 19
44 13 52 18 54 119 46 l75 -5 -4 -125 c-2 -69 -5 -127 -6 -129 -2 -1 -120 1
-262 5 l-258 9 -3 66 c-3 60 -1 67 18 72 19 5 20 12 20 165 0 133 -3 161 -15
166 -11 4 -15 22 -15 69 0 35 3 67 7 71 7 7 460 -2 501 -10z m-1454 -810 c30
-11 16 -30 -48 -64 -35 -19 -63 -37 -60 -41 2 -3 30 -16 63 -28 80 -29 136
-86 158 -160 26 -85 22 -231 -7 -298 -48 -113 -155 -171 -294 -160 -93 7 -136
21 -188 60 -63 48 -91 111 -96 216 -10 201 59 315 213 352 58 14 81 29 45 29
-14 0 -32 5 -40 10 -12 9 -8 17 29 50 43 40 44 40 126 40 46 0 90 -3 99 -6z
m-881 -111 l68 -6 -3 -66 c-3 -65 -4 -66 -33 -71 l-30 -5 -3 -140 c-2 -108 1
-145 11 -160 14 -18 15 -17 32 14 15 31 20 33 53 27 21 -3 56 -6 80 -6 l42 0
0 -69 c0 -38 -3 -83 -6 -100 l-6 -31 -222 0 c-121 0 -231 3 -243 6 -21 6 -23
13 -23 64 0 45 4 61 19 71 17 12 20 33 26 171 6 151 6 157 -14 168 -17 9 -21
20 -21 60 0 80 -1 80 109 80 53 0 127 -3 164 -7z m1653 -38 c117 -27 114 -24
114 -135 0 -113 3 -110 -110 -110 -76 0 -90 7 -104 52 -9 27 -16 33 -40 33
-26 0 -31 -5 -39 -35 -11 -44 -4 -187 11 -202 7 -7 12 3 17 38 4 27 12 55 17
62 11 13 158 16 238 4 l45 -7 3 -58 c3 -52 1 -59 -17 -64 -18 -4 -21 -14 -22
-57 -2 -83 -10 -99 -59 -118 -109 -40 -282 -31 -374 20 -120 69 -165 232 -111
410 26 85 97 150 190 173 51 12 177 9 241 -6z m608 -11 l46 -7 0 -63 c0 -53
-3 -65 -20 -74 -19 -10 -20 -21 -20 -169 0 -132 3 -160 15 -165 11 -4 15 -20
15 -55 0 -83 4 -81 -139 -81 -175 0 -171 -1 -171 75 0 53 3 63 19 68 16 4 19
20 24 163 5 149 4 160 -14 173 -15 11 -19 26 -19 71 0 31 3 60 7 63 8 9 195 9
257 1z m721 -35 l60 -24 0 -105 0 -105 -55 -3 c-30 -2 -74 -1 -97 3 -38 5 -43
9 -43 31 0 39 -18 64 -45 64 -19 0 -26 -7 -34 -37 -17 -60 -14 -214 5 -241 26
-37 54 -22 63 34 l6 39 100 0 100 0 3 -65 c1 -36 -1 -83 -6 -105 -6 -33 -14
-43 -47 -58 -49 -24 -168 -36 -251 -26 -159 20 -244 125 -244 305 0 151 65
269 171 307 68 25 235 18 314 -14z m716 -10 c4 -8 15 -45 25 -84 44 -189 97
-371 110 -381 9 -8 14 -31 14 -73 l0 -61 -153 0 c-150 0 -154 1 -165 23 l-11
22 -7 -22 c-6 -21 -12 -23 -78 -23 -39 0 -101 3 -138 7 l-68 6 0 58 c0 45 4
61 19 71 10 7 21 22 24 33 36 129 132 423 141 434 15 19 275 9 287 -10z m363
-24 c11 -29 8 -1507 -3 -1518 -8 -8 -20 -8 -44 1 -25 9 -216 12 -743 12 -390
0 -715 4 -722 9 -8 5 -12 17 -10 27 3 18 28 19 722 22 545 2 723 5 734 14 12
11 13 102 7 688 -4 372 -4 695 0 718 6 35 11 42 30 42 12 0 25 -7 29 -15z
m-532 -623 c6 -6 -56 -191 -202 -594 -23 -64 -47 -118 -54 -121 -6 -2 -30 -2
-53 1 -33 3 -43 8 -43 22 0 22 229 674 247 704 6 9 93 0 105 -12z m-3718 -68
c3 -9 6 -25 6 -35 0 -11 5 -17 10 -14 6 3 10 17 10 31 0 14 6 27 13 29 6 3 68
2 137 -3 l125 -7 0 -65 c0 -60 -2 -65 -22 -68 -27 -4 -157 -146 -150 -164 11
-29 139 -178 152 -178 12 0 15 -15 15 -65 l0 -65 -150 0 -150 0 0 24 c0 13 -3
32 -6 41 -9 23 -24 -1 -24 -39 l0 -29 -82 6 c-46 4 -109 7 -140 7 l-58 0 0 63
c0 60 1 63 29 72 28 10 151 139 151 160 0 18 -129 175 -144 175 -24 0 -34 62
-20 118 6 22 9 22 149 22 121 0 144 -2 149 -16z"/>
<path d="M1950 3500 c-15 -28 -23 -167 -13 -215 7 -33 13 -40 33 -40 20 0 26
7 33 40 13 64 5 214 -13 225 -22 14 -28 12 -40 -10z"/>
<path d="M2064 2558 c-5 -7 -10 -56 -12 -108 -3 -76 0 -99 12 -115 16 -20 16
-20 31 0 23 30 17 228 -7 233 -9 2 -20 -3 -24 -10z"/>
<path d="M1440 1601 c-5 -11 -10 -67 -10 -124 0 -82 3 -107 16 -117 12 -11 18
-10 31 3 12 12 17 42 21 120 4 88 2 106 -12 120 -22 22 -33 21 -46 -2z"/>
</g>
</svg>
